{
    "asset" : {
        "generator" : "Khronos glTF Blender I/O v3.4.50",
        "version" : "2.0"
    },
    "scene" : 0,
    "scenes" : [
        {
            "name" : "Scene",
            "nodes" : [
                0
            ]
        }
    ],
    "nodes" : [
        {
            "mesh" : 0,
            "name" : "strings",
            "scale" : [
                0.05000000074505806,
                4.999999523162842,
                0.05000000074505806
            ]
        }
    ],
    "meshes" : [
        {
            "name" : "Cube.012",
            "primitives" : [
                {
                    "attributes" : {
                        "POSITION" : 0,
                        "TEXCOORD_0" : 1,
                        "NORMAL" : 2
                    },
                    "indices" : 3
                }
            ]
        }
    ],
    "accessors" : [
        {
            "bufferView" : 0,
            "componentType" : 5126,
            "count" : 923,
            "max" : [
                588.51708984375,
                3.843050956726074,
                48.61756134033203
            ],
            "min" : [
                -43.04310607910156,
                -1.3107554912567139,
                -1182.15185546875
            ],
            "type" : "VEC3"
        },
        {
            "bufferView" : 1,
            "componentType" : 5126,
            "count" : 923,
            "type" : "VEC2"
        },
        {
            "bufferView" : 2,
            "componentType" : 5126,
            "count" : 923,
            "type" : "VEC3"
        },
        {
            "bufferView" : 3,
            "componentType" : 5123,
            "count" : 1536,
            "type" : "SCALAR"
        }
    ],
    "bufferViews" : [
        {
            "buffer" : 0,
            "byteLength" : 11076,
            "byteOffset" : 0,
            "target" : 34962
        },
        {
            "buffer" : 0,
            "byteLength" : 7384,
            "byteOffset" : 11076,
            "target" : 34962
        },
        {
            "buffer" : 0,
            "byteLength" : 11076,
            "byteOffset" : 18460,
            "target" : 34962
        },
        {
            "buffer" : 0,
            "byteLength" : 3072,
            "byteOffset" : 29536,
            "target" : 34963
        }
    ],
    "buffers" : [
        {
            "byteLength" : 32608,
            "uri" : "data:application/octet-stream;base64,"
        }
    ]
}
