{
    "asset" : {
        "generator" : "Khronos glTF Blender I/O v1.8.19",
        "version" : "2.0"
    },
    "scene" : 0,
    "scenes" : [
        {
            "name" : "Scene",
            "nodes" : [
                0,
                1,
                2
            ]
        }
    ],
    "nodes" : [
        {
            "mesh" : 0,
            "name" : "Cube",
            "rotation" : [
                0,
                0,
                0.0009457567357458174,
                1
            ],
            "scale" : [
                4.75,
                1,
                5.5
            ]
        },
        {
            "mesh" : 1,
            "name" : "Cube.001",
            "rotation" : [
                0,
                0,
                0.003154560923576355,
                0.9999950528144836
            ],
            "scale" : [
                0.9392687678337097,
                1.619996190071106,
                1
            ],
            "translation" : [
                0,
                -0.16838686168193817,
                8.891136169433594
            ]
        },
        {
            "mesh" : 2,
            "name" : "Cube.002",
            "scale" : [
                4.60417366027832,
                0.08302728831768036,
                0.26267147064208984
            ],
            "translation" : [
                0,
                0.06067853420972824,
                5.450053691864014
            ]
        }
    ],
    "materials" : [
        {
            "doubleSided" : true,
            "name" : "Material.002",
            "pbrMetallicRoughness" : {
                "baseColorFactor" : [
                    0,
                    0,
                    0,
                    1
                ],
                "metallicFactor" : 0,
                "roughnessFactor" : 0.5
            }
        },
        {
            "doubleSided" : true,
            "name" : "Material.001",
            "pbrMetallicRoughness" : {
                "baseColorFactor" : [
                    0.13286279141902924,
                    0.13286279141902924,
                    0.13286279141902924,
                    1
                ],
                "metallicFactor" : 0,
                "roughnessFactor" : 0.5
            }
        }
    ],
    "meshes" : [
        {
            "name" : "Cube.001",
            "primitives" : [
                {
                    "attributes" : {
                        "POSITION" : 0,
                        "NORMAL" : 1,
                        "TEXCOORD_0" : 2
                    },
                    "indices" : 3,
                    "material" : 0
                }
            ]
        },
        {
            "name" : "Cube.002",
            "primitives" : [
                {
                    "attributes" : {
                        "POSITION" : 4,
                        "NORMAL" : 5,
                        "TEXCOORD_0" : 6
                    },
                    "indices" : 7,
                    "material" : 1
                }
            ]
        },
        {
            "name" : "Cube.003",
            "primitives" : [
                {
                    "attributes" : {
                        "POSITION" : 8,
                        "NORMAL" : 9,
                        "TEXCOORD_0" : 10
                    },
                    "indices" : 11
                }
            ]
        }
    ],
    "accessors" : [
        {
            "bufferView" : 0,
            "componentType" : 5126,
            "count" : 922,
            "max" : [
                1.0013794898986816,
                4.173608779907227,
                1.082811713218689
            ],
            "min" : [
                -1.0229548215866089,
                -3.8836097717285156,
                -1.0000832080841064
            ],
            "type" : "VEC3"
        },
        {
            "bufferView" : 1,
            "componentType" : 5126,
            "count" : 922,
            "type" : "VEC3"
        },
        {
            "bufferView" : 2,
            "componentType" : 5126,
            "count" : 922,
            "type" : "VEC2"
        },
        {
            "bufferView" : 3,
            "componentType" : 5123,
            "count" : 1458,
            "type" : "SCALAR"
        },
        {
            "bufferView" : 4,
            "componentType" : 5126,
            "count" : 24,
            "max" : [
                4.520986557006836,
                0.21853207051753998,
                -3.3814048767089844
            ],
            "min" : [
                -4.520986557006836,
                0.13249345123767853,
                -3.747629165649414
            ],
            "type" : "VEC3"
        },
        {
            "bufferView" : 5,
            "componentType" : 5126,
            "count" : 24,
            "type" : "VEC3"
        },
        {
            "bufferView" : 6,
            "componentType" : 5126,
            "count" : 24,
            "type" : "VEC2"
        },
        {
            "bufferView" : 7,
            "componentType" : 5123,
            "count" : 36,
            "type" : "SCALAR"
        },
        {
            "bufferView" : 8,
            "componentType" : 5126,
            "count" : 24,
            "max" : [
                1,
                1,
                1
            ],
            "min" : [
                -1,
                -1,
                -1
            ],
            "type" : "VEC3"
        },
        {
            "bufferView" : 9,
            "componentType" : 5126,
            "count" : 24,
            "type" : "VEC3"
        },
        {
            "bufferView" : 10,
            "componentType" : 5126,
            "count" : 24,
            "type" : "VEC2"
        },
        {
            "bufferView" : 11,
            "componentType" : 5123,
            "count" : 36,
            "type" : "SCALAR"
        }
    ],
    "bufferViews" : [
        {
            "buffer" : 0,
            "byteLength" : 11064,
            "byteOffset" : 0
        },
        {
            "buffer" : 0,
            "byteLength" : 11064,
            "byteOffset" : 11064
        },
        {
            "buffer" : 0,
            "byteLength" : 7376,
            "byteOffset" : 22128
        },
        {
            "buffer" : 0,
            "byteLength" : 2916,
            "byteOffset" : 29504
        },
        {
            "buffer" : 0,
            "byteLength" : 288,
            "byteOffset" : 32420
        },
        {
            "buffer" : 0,
            "byteLength" : 288,
            "byteOffset" : 32708
        },
        {
            "buffer" : 0,
            "byteLength" : 192,
            "byteOffset" : 32996
        },
        {
            "buffer" : 0,
            "byteLength" : 72,
            "byteOffset" : 33188
        },
        {
            "buffer" : 0,
            "byteLength" : 288,
            "byteOffset" : 33260
        },
        {
            "buffer" : 0,
            "byteLength" : 288,
            "byteOffset" : 33548
        },
        {
            "buffer" : 0,
            "byteLength" : 192,
            "byteOffset" : 33836
        },
        {
            "buffer" : 0,
            "byteLength" : 72,
            "byteOffset" : 34028
        }
    ],
    "buffers" : [
        {
            "byteLength" : 34100,
            "uri" : "data:application/octet-stream;base64,"
        }
    ]
}
